#!OML:ASF I:\Actors\actors\Patient Classification 2\Patient 1\Session 1\actor1.ASF
:FULLY-SPECIFIED
:DEGREES
110
root -1.0163 18.0965 5.6254 -3.22186 -1.92557 -4.84721
lowerback 5.57701 0.647343 4.01711
upperback -2.16643 1.28337 2.10986
thorax -5.34749 0.535414 -0.190285
lowerneck -3.47938 -5.55108 -4.19325
upperneck 34.071 -9.72201 6.61881
head 12.3725 -4.16889 2.1428
rclavicle 4.95719e-015 6.16232e-015
rhumerus 33.6339 2.021 -43.9595
rradius 111.568
rwrist -55.2729
rhand 6.4402 -19.8588
rfingers 7.12502
rthumb 31.7427 -47.116
lclavicle 4.95719e-015 6.16232e-015
lhumerus 38.962 -0.20414 44.2773
lradius 105.113
lwrist 77.1791
lhand 4.39441 -9.63282
lfingers 7.12502
lthumb 29.7922 17.9919
rfemur 0 0 0
rtibia 0
rfoot 0 0
rtoes 0
lfemur 21.4353 -7.30765 -12.3144
ltibia -19.5512
lfoot -2.68002 20.1096
ltoes -10.7584
111
root -1.01885 18.0905 5.63955 -3.34979 -1.91262 -4.89211
lowerback 5.79047 0.700023 4.14882
upperback -2.17772 1.37981 2.15605
thorax -5.47686 0.577013 -0.228496
lowerneck -3.60034 -6.01391 -4.81923
upperneck 34.5787 -10.3224 6.49745
head 12.6935 -4.51618 2.12826
rclavicle -1.00138e-014 1.70955e-014
rhumerus 34.4947 2.00675 -43.8517
rradius 112.081
rwrist -55.4211
rhand 6.663 -19.6314
rfingers 7.12502
rthumb 31.9549 -46.8464
lclavicle -1.00138e-014 1.70955e-014
lhumerus 41.4931 0.496279 42.8579
lradius 103.679
lwrist 78.9271
lhand 5.9814 -8.26198
lfingers 7.12502
lthumb 31.3056 19.0808
rfemur 0 0 0
rtibia 0
rfoot 0 0
rtoes 0
lfemur 21.6553 -7.27053 -12.2625
ltibia -19.608
lfoot -2.72836 20.0263
ltoes -10.6873
112
root -1.01997 18.0846 5.65534 -3.45494 -1.92957 -4.90777
lowerback 5.8473 0.734458 4.23398
upperback -2.16069 1.44118 2.26714
thorax -5.49076 0.606331 -0.167557
lowerneck -3.48176 -6.35448 -5.48699
upperneck 34.8351 -10.6482 6.18381
head 12.8293 -4.78078 2.08408
rclavicle 5.81445e-015 1.17283e-014
rhumerus 35.0627 2.09793 -43.9677
rradius 112.765
rwrist -55.4803
rhand 7.04021 -19.2751
rfingers 7.12502
rthumb 32.314 -46.4176
lclavicle 5.81445e-015 1.17283e-014
lhumerus 43.5592 1.16218 41.6083
lradius 102.453
lwrist 80.1616
lhand 7.7408 -7.10842
lfingers 7.12502
lthumb 32.9805 19.8959
rfemur 0 0 0
rtibia 0
rfoot 0 0
rtoes 0
lfemur 21.8616 -7.20822 -12.2507
ltibia -19.6687
lfoot -2.75768 19.9653
ltoes -10.6628
113
root -1.02163 18.0792 5.67048 -3.54946 -1.95949 -4.86683
lowerback 5.94121 0.797409 4.3292
upperback -2.196 1.54348 2.32246
thorax -5.5778 0.652609 -0.175282
lowerneck -3.28308 -6.66527 -6.00713
upperneck 34.9998 -10.8871 5.69756
head 12.8819 -5.01204 1.95975
rclavicle 2.90226e-014 3.37934e-015
rhumerus 35.0657 2.2007 -44.4232
rradius 113.527
rwrist -55.26
rhand 7.50468 -18.701
rfingers 7.12502
rthumb 32.7559 -45.7524
lclavicle 2.90226e-014 3.37934e-015
lhumerus 45.2781 1.66103 40.3452
lradius 101.517
lwrist 81.0345
lhand 9.38956 -6.05818
lfingers 7.12502
lthumb 34.5471 20.6024
rfemur 0 0 0
rtibia 0
rfoot 0 0
rtoes 0
lfemur 22.0472 -7.05272 -12.2809
ltibia -19.7251
lfoot -2.71118 19.8145
ltoes -10.6567
114
root -1.02274 18.0747 5.68291 -3.62698 -1.93904 -4.81678
lowerback 6.01973 0.81569 4.3869
upperback -2.24458 1.58446 2.40416
thorax -5.67376 0.670122 -0.128124
lowerneck -2.94831 -6.92266 -6.83259
upperneck 34.974 -11.0383 5.35065
head 12.849 -5.23415 1.9565
rclavicle -1.08835e-014 -3.18055e-015
rhumerus 34.7822 2.34002 -45.1384
rradius 114.329
rwrist -54.8089
rhand 7.63883 -18.2521
rfingers 7.12502
rthumb 32.8836 -45.2768
lclavicle -1.08835e-014 -3.18055e-015
lhumerus 46.5958 2.17319 39.1055
lradius 100.875
lwrist 81.5863
lhand 10.9309 -5.12502
lfingers 7.12502
lthumb 36.0087 21.1894
rfemur 0 0 0
rtibia 0
rfoot 0 0
rtoes 0
lfemur 22.1788 -6.89223 -12.3091
ltibia -19.7572
lfoot -2.63585 19.6127
ltoes -10.8456
